<?xml version="1.0" encoding="UTF-8"?>
<svg version="1.1" xmlns="http://www.w3.org/2000/svg" width="300" height="300">
<path d="M0 0 C0.76166473 -0.00067474 1.52332947 -0.00134949 2.30807495 -0.00204468 C13.68085486 0.01397185 24.5549096 0.47968474 35.625 3.25 C36.31190918 3.41628906 36.99881836 3.58257812 37.70654297 3.75390625 C64.56977137 10.39439301 86.52120343 24.57975089 106.625 43.25 C107.53185547 44.07564453 107.53185547 44.07564453 108.45703125 44.91796875 C132.2500435 67.48511152 148.3781112 103.28061683 149.78613281 135.99365234 C149.83215091 140.20430853 149.87165774 144.41408784 149.875 148.625 C149.87567474 149.3863324 149.87634949 150.14766479 149.87704468 150.93206787 C149.81708544 193.48519468 132.50418346 228.94842937 102.890625 259.02734375 C90.35424014 271.0962115 75.46152814 280.16771941 59.625 287.25 C58.58601562 287.71921875 57.54703125 288.1884375 56.4765625 288.671875 C38.75500442 296.05206114 20.21732897 298.48262863 1.1875 298.5 C0.42522095 298.50100708 -0.33705811 298.50201416 -1.12243652 298.50305176 C-12.16322925 298.49316743 -22.64388413 298.07779405 -33.375 295.25 C-35.18484375 294.79753906 -35.18484375 294.79753906 -37.03125 294.3359375 C-72.16952927 284.94026717 -104.74131103 263.31542562 -124.375 232.25 C-124.74979492 231.66686035 -125.12458984 231.0837207 -125.51074219 230.48291016 C-141.28876561 205.72730402 -148.60178207 179.13076808 -148.625 149.875 C-148.62567474 149.11333527 -148.62634949 148.35167053 -148.62704468 147.56692505 C-148.61103021 136.19560747 -148.1503393 125.31791937 -145.375 114.25 C-145.20339355 113.55245605 -145.03178711 112.85491211 -144.85498047 112.13623047 C-139.4024723 90.46750499 -129.1898579 70.06766175 -114.375 53.25 C-113.63378906 52.40050781 -112.89257812 51.55101562 -112.12890625 50.67578125 C-105.57414167 43.28094566 -98.94525032 36.34106054 -91 30.4375 C-90.31301025 29.92687012 -89.62602051 29.41624023 -88.91821289 28.89013672 C-76.88261824 20.1070004 -64.41334754 13.23896432 -50.375 8.25 C-48.83585937 7.68345703 -48.83585937 7.68345703 -47.265625 7.10546875 C-31.72221235 1.61593015 -16.35411329 0.01297893 0 0 Z M-34.375 21.25 C-35.0448291 21.43191895 -35.7146582 21.61383789 -36.40478516 21.80126953 C-66.70210621 30.25370091 -95.08820614 51.32628845 -111.375 78.25 C-111.75205078 78.86311035 -112.12910156 79.4762207 -112.51757812 80.10791016 C-130.09460378 108.91309347 -136.65899041 144.45253713 -129.14086914 177.59741211 C-128.58895262 179.82689216 -127.99497461 182.03857042 -127.375 184.25 C-127.19308105 184.9198291 -127.01116211 185.5896582 -126.82373047 186.27978516 C-118.2496578 217.01312339 -97.15061231 244.18696183 -70.375 261.25 C-68.71210937 262.31154297 -68.71210937 262.31154297 -67.015625 263.39453125 C-38.10504942 280.81415225 -1.54843218 286.57142375 31.29296875 278.44140625 C32.73884983 278.05113643 34.18297155 277.65427289 35.625 277.25 C36.2948291 277.06808105 36.9646582 276.88616211 37.65478516 276.69873047 C68.38812339 268.1246578 95.56196183 247.02561231 112.625 220.25 C113.33269531 219.14140625 114.04039062 218.0328125 114.76953125 216.890625 C132.18915225 187.98004942 137.94642375 151.42343218 129.81640625 118.58203125 C129.42613643 117.13615017 129.02927289 115.69202845 128.625 114.25 C128.44308105 113.5801709 128.26116211 112.9103418 128.07373047 112.22021484 C119.01000486 79.73173995 95.8740962 50.61862017 66.57666016 34.09472656 C35.72945975 17.32755615 -0.2371074 11.6794367 -34.375 21.25 Z " fill="#007CB8" transform="translate(149.375,0.75)"/>
<path d="M0 0 C2.64786814 1.44185532 4.85904996 3.18959487 7.1796875 5.11328125 C8.07171875 5.84675781 8.96375 6.58023438 9.8828125 7.3359375 C10.55828125 7.90183594 11.23375 8.46773437 11.9296875 9.05078125 C10.38131291 13.36411045 7.08131794 15.57659342 3.5546875 18.23828125 C2.93706543 18.71370361 2.31944336 19.18912598 1.68310547 19.67895508 C-0.2278375 21.14550975 -2.14750421 22.59982776 -4.0703125 24.05078125 C-4.67488281 24.50839844 -5.27945313 24.96601563 -5.90234375 25.4375 C-9.27987439 27.99124268 -12.66944228 30.52815773 -16.0703125 33.05078125 C-15.7403125 34.04078125 -15.4103125 35.03078125 -15.0703125 36.05078125 C-13.5853125 36.54578125 -13.5853125 36.54578125 -12.0703125 37.05078125 C-10.37334243 36.14035836 -10.37334243 36.14035836 -8.734375 34.65625 C-8.08791016 34.11701904 -7.44144531 33.57778809 -6.77539062 33.0222168 C-6.08896484 32.43351807 -5.40253906 31.84481934 -4.6953125 31.23828125 C-3.26163614 30.03890538 -1.82672112 28.84100872 -0.390625 27.64453125 C0.32963867 27.04125 1.04990234 26.43796875 1.79199219 25.81640625 C4.94525074 23.2119789 8.17692176 20.71660079 11.4296875 18.23828125 C11.9870459 17.81248779 12.5444043 17.38669434 13.11865234 16.94799805 C14.38748611 15.98027437 15.65832872 15.01518526 16.9296875 14.05078125 C20.14427474 15.53273546 22.86304646 17.34818634 25.6796875 19.48828125 C26.47890625 20.08511719 27.278125 20.68195313 28.1015625 21.296875 C28.70484375 21.87566406 29.308125 22.45445312 29.9296875 23.05078125 C29.9296875 24.04078125 29.9296875 25.03078125 29.9296875 26.05078125 C27.74614914 28.03499246 25.57945268 29.82651136 23.2421875 31.61328125 C22.5711499 32.13760742 21.9001123 32.66193359 21.20874023 33.20214844 C19.12297856 34.82797795 17.02730398 36.44028665 14.9296875 38.05078125 C13.63250014 39.05428386 12.33561171 40.05817303 11.0390625 41.0625 C8.01114628 43.40323534 4.97347471 45.73072759 1.9296875 48.05078125 C2.5896875 49.04078125 3.2496875 50.03078125 3.9296875 51.05078125 C7.1148083 50.45392585 8.96566861 49.47142463 11.43359375 47.390625 C12.41380493 46.57875732 12.41380493 46.57875732 13.41381836 45.75048828 C14.82141728 44.55701371 16.22712558 43.36130634 17.63110352 42.16357422 C21.72118031 38.7167081 25.6005468 36.14667767 30.3671875 33.67578125 C33.42532083 31.59734932 34.70405704 30.11108381 35.47851562 26.47167969 C36.25692893 19.58828202 36.04881843 13.03979592 35.9296875 6.05078125 C43.5196875 6.05078125 51.1096875 6.05078125 58.9296875 6.05078125 C58.9296875 21.23078125 58.9296875 36.41078125 58.9296875 52.05078125 C66.1896875 52.05078125 73.4496875 52.05078125 80.9296875 52.05078125 C80.9296875 58.32078125 80.9296875 64.59078125 80.9296875 71.05078125 C66.0796875 71.05078125 51.2296875 71.05078125 35.9296875 71.05078125 C35.5996875 64.45078125 35.2696875 57.85078125 34.9296875 51.05078125 C32.7434375 52.80390625 30.5571875 54.55703125 28.3046875 56.36328125 C22.42407566 61.07309548 16.51891228 65.75021765 10.58740234 70.39575195 C8.08924338 72.35240678 5.64501049 74.30606683 3.28125 76.42578125 C0.9296875 78.05078125 0.9296875 78.05078125 -1.00268555 77.81420898 C-3.25969743 76.98085485 -4.66510054 76.00482314 -6.50390625 74.4609375 C-7.1469873 73.92815186 -7.79006836 73.39536621 -8.45263672 72.84643555 C-9.13084473 72.27449463 -9.80905273 71.70255371 -10.5078125 71.11328125 C-11.93516601 69.93234542 -13.36356737 68.75267503 -14.79296875 67.57421875 C-15.50727051 66.98350586 -16.22157227 66.39279297 -16.95751953 65.78417969 C-20.08277863 63.22012381 -23.25129552 60.71591737 -26.4453125 58.23828125 C-27.48429687 57.42746094 -28.52328125 56.61664063 -29.59375 55.78125 C-31.84001189 53.8598586 -31.84001189 53.8598586 -34.0703125 54.05078125 C-35.14192449 55.38658567 -36.15261372 56.77152485 -37.1328125 58.17578125 C-42.1347352 64.79290816 -48.07041108 68.8431786 -56.0703125 71.05078125 C-58.96754306 71.30768996 -61.84331139 71.28480895 -64.75 71.24609375 C-65.47131104 71.24407959 -66.19262207 71.24206543 -66.93579102 71.23999023 C-69.60569709 71.22960149 -72.27551183 71.20167939 -74.9453125 71.17578125 C-83.9171875 71.11390625 -83.9171875 71.11390625 -93.0703125 71.05078125 C-93.0703125 49.60078125 -93.0703125 28.15078125 -93.0703125 6.05078125 C-87.8934375 5.96828125 -82.7165625 5.88578125 -77.3828125 5.80078125 C-74.97609253 5.74615723 -74.97609253 5.74615723 -72.52075195 5.69042969 C-62.56407454 5.61435427 -52.04229368 6.00112986 -43.71875 12.234375 C-42.96851563 12.97816406 -42.21828125 13.72195312 -41.4453125 14.48828125 C-40.66929688 15.22949219 -39.89328125 15.97070312 -39.09375 16.734375 C-37.0730697 19.04762484 -35.55572992 21.36851477 -34.0703125 24.05078125 C-30.15021931 22.35844833 -26.99908537 19.76181349 -23.6953125 17.11328125 C-23.08896973 16.6347168 -22.48262695 16.15615234 -21.85791016 15.66308594 C-18.60275773 13.09080332 -15.37810132 10.48623367 -12.1796875 7.84375 C-11.55368652 7.33384521 -10.92768555 6.82394043 -10.28271484 6.29858398 C-9.07639231 5.31522114 -7.87843041 4.32149388 -6.68994141 3.31665039 C-2.67775475 0.06568078 -2.67775475 0.06568078 0 0 Z M-71.0703125 26.05078125 C-71.0703125 34.63078125 -71.0703125 43.21078125 -71.0703125 52.05078125 C-63.24173713 52.30457458 -63.24173713 52.30457458 -57.0703125 49.05078125 C-54.20045891 45.80331535 -52.81904857 43.27980806 -52.6328125 38.98828125 C-53.21134672 33.7814733 -54.71995874 31.56481425 -58.1328125 27.73828125 C-61.95087048 25.22057382 -61.95087048 25.22057382 -71.0703125 26.05078125 Z " fill="#007CB8" transform="translate(132.0703125,109.94921875)"/>
<path d="M0 0 C7.92 0 15.84 0 24 0 C24 15.18 24 30.36 24 46 C31.26 46 38.52 46 46 46 C46 52.27 46 58.54 46 65 C30.82 65 15.64 65 0 65 C0 43.55 0 22.1 0 0 Z " fill="#007CB7" transform="translate(218,116)"/>
</svg>
