<?xml version="1.0" encoding="UTF-8"?>
<svg version="1.1" xmlns="http://www.w3.org/2000/svg" width="225" height="225">
<path d="M0 0 C74.25 0 148.5 0 225 0 C225 74.25 225 148.5 225 225 C150.75 225 76.5 225 0 225 C0 150.75 0 76.5 0 0 Z " fill="#0176CE" transform="translate(0,0)"/>
<path d="M0 0 C3.10908435 1.51349816 5.07263065 3.59555183 7.3671875 6.15234375 C6.02527344 7.20421875 6.02527344 7.20421875 4.65625 8.27734375 C4.07520508 8.73326904 3.49416016 9.18919434 2.89550781 9.65893555 C1.62182294 10.65831091 0.34773116 11.65716788 -0.92675781 12.65551758 C-5.58123205 16.30748062 -10.1810543 20.02084153 -14.7421875 23.7890625 C-16.6328125 25.15234375 -16.6328125 25.15234375 -18.6328125 25.15234375 C-16.90425324 27.29802288 -16.90425324 27.29802288 -14.6328125 29.15234375 C-10.20969235 28.61146252 -7.28546679 25.75353217 -3.9453125 23.02734375 C-2.69936252 22.02846647 -1.45326856 21.02976877 -0.20703125 20.03125 C0.39963379 19.54156738 1.00629883 19.05188477 1.63134766 18.54736328 C3.98067237 16.65931245 6.35906496 14.80996407 8.7421875 12.96484375 C9.45117188 12.41441406 10.16015625 11.86398438 10.890625 11.296875 C11.37789063 10.91917969 11.86515625 10.54148437 12.3671875 10.15234375 C15.30165636 11.57025938 17.80051159 13.13566982 20.3671875 15.15234375 C18.81517335 19.56006395 15.33136066 21.81794318 11.7421875 24.52734375 C11.11425293 25.01195068 10.48631836 25.49655762 9.83935547 25.99584961 C6.42740472 28.62100223 2.97189891 31.18016188 -0.5078125 33.71484375 C-1.5390625 34.51921875 -2.5703125 35.32359375 -3.6328125 36.15234375 C-3.6328125 36.81234375 -3.6328125 37.47234375 -3.6328125 38.15234375 C-1.49337412 39.58147386 -1.49337412 39.58147386 1.3671875 40.15234375 C3.74346957 38.78823949 5.50551994 37.53499922 7.5546875 35.77734375 C8.40027222 35.09019287 8.40027222 35.09019287 9.26293945 34.38916016 C10.97771372 32.99225947 12.67269066 31.57372757 14.3671875 30.15234375 C16.25882714 28.60553425 18.15416749 27.06322911 20.0546875 25.52734375 C20.84230469 24.87507813 21.62992187 24.2228125 22.44140625 23.55078125 C24.3671875 22.15234375 24.3671875 22.15234375 26.3671875 22.15234375 C26.3671875 15.55234375 26.3671875 8.95234375 26.3671875 2.15234375 C30.3271875 2.15234375 34.2871875 2.15234375 38.3671875 2.15234375 C38.3671875 15.35234375 38.3671875 28.55234375 38.3671875 42.15234375 C44.9671875 42.15234375 51.5671875 42.15234375 58.3671875 42.15234375 C58.3671875 45.12234375 58.3671875 48.09234375 58.3671875 51.15234375 C48.1371875 51.15234375 37.9071875 51.15234375 27.3671875 51.15234375 C27.0371875 45.54234375 26.7071875 39.93234375 26.3671875 34.15234375 C25.31660156 35.00957031 24.26601562 35.86679688 23.18359375 36.75 C20.29746521 39.10359571 17.40450054 41.44847952 14.5078125 43.7890625 C12.13924645 45.70431192 9.79782718 47.63630002 7.4765625 49.609375 C6.33960937 50.55876953 6.33960937 50.55876953 5.1796875 51.52734375 C4.54675781 52.07132813 3.91382812 52.6153125 3.26171875 53.17578125 C1.3671875 54.15234375 1.3671875 54.15234375 -0.88671875 54.203125 C-5.04481937 52.61204525 -8.02806654 49.84107291 -11.3828125 46.96484375 C-16.92491564 42.326812 -22.44451583 37.91689089 -28.6328125 34.15234375 C-28.8390625 34.99796875 -29.0453125 35.84359375 -29.2578125 36.71484375 C-31.54315449 42.42819872 -34.90666227 46.60655921 -40.5 49.34765625 C-46.60693772 51.93320223 -52.67304991 51.58856463 -59.1953125 51.40234375 C-63.2996875 51.31984375 -67.4040625 51.23734375 -71.6328125 51.15234375 C-71.6328125 34.98234375 -71.6328125 18.81234375 -71.6328125 2.15234375 C-42.27843433 2.15234375 -42.27843433 2.15234375 -33.07421875 10.56640625 C-30.56366172 13.32869935 -28.6328125 16.35705821 -28.6328125 20.15234375 C-23.53724411 16.55048668 -18.51601267 12.92905187 -13.73828125 8.9140625 C-12.7484021 8.08986816 -12.7484021 8.08986816 -11.73852539 7.24902344 C-10.43150389 6.15417343 -9.1347723 5.0469053 -7.84936523 3.92675781 C-3.37199016 0.19511516 -3.37199016 0.19511516 0 0 Z " fill="#F9FBFC" transform="translate(101.6328125,65.84765625)"/>
<path d="M0 0 C3.63 0 7.26 0 11 0 C11 13.2 11 26.4 11 40 C17.93 40 24.86 40 32 40 C32 42.97 32 45.94 32 49 C21.44 49 10.88 49 0 49 C0 32.83 0 16.66 0 0 Z " fill="#FBFCFD" transform="translate(164,68)"/>
<path d="M0 0 C13.78947368 0 13.78947368 0 18 4 C21.70136323 8.18838471 22.59406206 11.39485244 22.3203125 16.82421875 C21.63754896 21.462015 19.87329007 24.21190896 16.4375 27.3125 C10.23939444 31.60349616 10.48678337 30 0 30 C0 20.1 0 10.2 0 0 Z " fill="#0879CF" transform="translate(41,78)"/>
<path d="M0 0 C2.59653964 1.91323973 3.73151664 3.19454991 4.75 6.25 C4.87375 7.11625 4.87375 7.11625 5 8 C5 7.34 5 6.68 5 6 C5.82352941 1.17647059 5.82352941 1.17647059 7 0 C12.73611111 -0.27314815 12.73611111 -0.27314815 15 0 C17 2 17 2 17 5 C16.34 5 15.68 5 15 5 C14.67 4.34 14.34 3.68 14 3 C10.97065509 2.34227572 10.97065509 2.34227572 8 2 C8 3.32 8 4.64 8 6 C8.56589844 6.13277344 9.13179687 6.26554688 9.71484375 6.40234375 C10.44832031 6.57894531 11.18179688 6.75554687 11.9375 6.9375 C12.66839844 7.11152344 13.39929688 7.28554687 14.15234375 7.46484375 C16 8 16 8 17 9 C17.125 12 17.125 12 17 15 C15.42077594 16.57922406 13.80556126 16.207659 11.625 16.25 C10.83351562 16.27578125 10.04203125 16.3015625 9.2265625 16.328125 C6.52975122 15.93070018 5.69270985 15.07493465 4 13 C3.67 13.495 3.34 13.99 3 14.5 C0.29213289 16.53090033 -1.75819634 16.36088859 -5.0625 16.3984375 C-7.62682976 15.87109549 -8.48591622 15.12714838 -10 13 C-10.3984375 10.625 -10.3984375 10.625 -10.375 8 C-10.38273438 7.13375 -10.39046875 6.2675 -10.3984375 5.375 C-9.40562938 -0.54291505 -5.29122795 -0.64979992 0 0 Z " fill="#0C78CE" transform="translate(178,137)"/>
<path d="M0 0 C1.32 0 2.64 0 4 0 C4.11644156 3.08301416 4.18732432 6.16546123 4.25 9.25 C4.30027344 10.55904297 4.30027344 10.55904297 4.3515625 11.89453125 C4.45031195 18.36262055 4.45031195 18.36262055 2.17578125 21.58203125 C-0.75943633 23.49492888 -2.56393817 23.51175389 -6 23 C-7.875 21.625 -7.875 21.625 -9 20 C-9 19.34 -9 18.68 -9 18 C-8.34 18 -7.68 18 -7 18 C-6.67 18.66 -6.34 19.32 -6 20 C-4.02 20 -2.04 20 0 20 C0.66 18.35 1.32 16.7 2 15 C1.01 15.495 1.01 15.495 0 16 C-6.34796574 16.46167024 -6.34796574 16.46167024 -8.69921875 14.796875 C-10.4133738 12.42897313 -10.40090963 10.90187887 -10.375 8 C-10.38273438 7.13375 -10.39046875 6.2675 -10.3984375 5.375 C-10 3 -10 3 -8.69140625 1.19921875 C-5.94798078 -0.74588892 -3.26400831 -0.17178991 0 0 Z " fill="#F4F9F9" transform="translate(156,137)"/>
<path d="M0 0 C1.94140625 0.4375 1.94140625 0.4375 4.44140625 2.375 C6.45620495 6.48854734 6.29410615 9.94057622 5.94140625 14.4375 C1.64935375 16.83797679 -1.18031711 16.90209778 -6.05859375 16.4375 C-8.42038038 14.66616003 -8.91749641 13.42115001 -9.33203125 10.53125 C-9.48761162 7.32390075 -9.25650406 4.93227577 -8.05859375 1.9375 C-5.46049907 -0.01107101 -3.20522769 -0.18889003 0 0 Z " fill="#0C7ACF" transform="translate(69.05859375,136.5625)"/>
<path d="M0 0 C2.4375 1.5 2.4375 1.5 4 4 C4.68375401 7.79172676 4.42949186 10.92627035 3 14.5 C0.2792037 16.54059723 -1.79233673 16.49732919 -5.12890625 16.33203125 C-7 16 -7 16 -8.9375 14.625 C-11.30930074 10.99754005 -11.37338855 8.33130724 -11 4 C-8.11188513 -0.5054592 -5.11821063 -0.73117295 0 0 Z " fill="#0E7BCF" transform="translate(119,137)"/>
<path d="M0 0 C1.0209375 -0.01160156 1.0209375 -0.01160156 2.0625 -0.0234375 C4.62682976 0.50390451 5.48591622 1.24785162 7 3.375 C7.3984375 5.75 7.3984375 5.75 7.375 8.375 C7.38273438 9.24125 7.39046875 10.1075 7.3984375 11 C7 13.375 7 13.375 5.7265625 15.1640625 C3.65280238 16.61850964 2.51482333 16.77857754 0 16.75 C-0.680625 16.75773437 -1.36125 16.76546875 -2.0625 16.7734375 C-4.62682976 16.24609549 -5.48591622 15.50214838 -7 13.375 C-7.3984375 11 -7.3984375 11 -7.375 8.375 C-7.38273438 7.50875 -7.39046875 6.6425 -7.3984375 5.75 C-7 3.375 -7 3.375 -5.7265625 1.5859375 C-3.65280238 0.13149036 -2.51482333 -0.02857754 0 0 Z " fill="#0475CE" transform="translate(137,136.625)"/>
<path d="M0 0 C2.4375 2.25 2.4375 2.25 4 5 C4 6.32 4 7.64 4 9 C-1.94 9.495 -1.94 9.495 -8 10 C-7.34 11.32 -6.68 12.64 -6 14 C-3.58380177 14.25030977 -3.58380177 14.25030977 -1 14 C-0.34 13.01 0.32 12.02 1 11 C1.66 11 2.32 11 3 11 C2.125 14.875 2.125 14.875 1 16 C-6.33333333 16.47311828 -6.33333333 16.47311828 -8.9375 14.625 C-10.89641777 11.62900812 -11.09501229 10.04212617 -10.75 6.5 C-10.68296875 5.7059375 -10.6159375 4.911875 -10.546875 4.09375 C-9.20727265 -1.03501327 -4.33754216 -0.53268062 0 0 Z " fill="#D6E7F3" transform="translate(55,137)"/>
<path d="M0 0 C2.4375 1.6875 2.4375 1.6875 4 4 C4 5.65 4 7.3 4 9 C0.04 9 -3.92 9 -8 9 C-7.01 10.65 -6.02 12.3 -5 14 C-1.62537285 13.45276317 0.08235 12.9451 3 11 C2.125 14.875 2.125 14.875 1 16 C-6.31927942 16.47221158 -6.31927942 16.47221158 -8.734375 14.796875 C-10.40314695 12.42763088 -10.40070089 10.87850015 -10.375 8 C-10.38273438 7.13375 -10.39046875 6.2675 -10.3984375 5.375 C-9.40562938 -0.54291505 -5.29122795 -0.64979992 0 0 Z " fill="#ECF5F8" transform="translate(178,137)"/>
<path d="M0 0 C2.4375 0.8125 2.4375 0.8125 4.4375 2.8125 C4.99550294 9.843337 4.99550294 9.843337 3.25 12.875 C1.4375 13.8125 1.4375 13.8125 -1.125 13.625 C-3.5625 12.8125 -3.5625 12.8125 -5.5625 10.8125 C-6.12050294 3.781663 -6.12050294 3.781663 -4.375 0.75 C-2.5625 -0.1875 -2.5625 -0.1875 0 0 Z " fill="#0B79CF" transform="translate(153.5625,138.1875)"/>
<path d="M0 0 C0.99 0 1.98 0 3 0 C3.33 2.31 3.66 4.62 4 7 C5.093125 6.938125 6.18625 6.87625 7.3125 6.8125 C11 7 11 7 12.71875 8.09375 C14.63271296 10.94135343 14.28800847 13.30371491 14.1875 16.6875 C14.16042969 17.86699219 14.13335937 19.04648438 14.10546875 20.26171875 C14.07066406 21.16535156 14.03585938 22.06898438 14 23 C13.34 23 12.68 23 12 23 C11.67 18.38 11.34 13.76 11 9 C6.65815798 9.18464366 6.65815798 9.18464366 3 11 C2.76572222 13.01594582 2.58663876 15.038474 2.4375 17.0625 C2.35371094 18.16722656 2.26992187 19.27195313 2.18359375 20.41015625 C2.12300781 21.26480469 2.06242187 22.11945313 2 23 C1.34 23 0.68 23 0 23 C0 15.41 0 7.82 0 0 Z " fill="#D2E3F2" transform="translate(76,130)"/>
<path d="M0 0 C1.0209375 -0.01160156 1.0209375 -0.01160156 2.0625 -0.0234375 C4.62682976 0.50390451 5.48591622 1.24785162 7 3.375 C7.3984375 5.75 7.3984375 5.75 7.375 8.375 C7.38273438 9.24125 7.39046875 10.1075 7.3984375 11 C7 13.375 7 13.375 5.7265625 15.1640625 C3.65280238 16.61850964 2.51482333 16.77857754 0 16.75 C-0.680625 16.75773437 -1.36125 16.76546875 -2.0625 16.7734375 C-4.62682976 16.24609549 -5.48591622 15.50214838 -7 13.375 C-7.3984375 11 -7.3984375 11 -7.375 8.375 C-7.38273438 7.50875 -7.39046875 6.6425 -7.3984375 5.75 C-7 3.375 -7 3.375 -5.7265625 1.5859375 C-3.65280238 0.13149036 -2.51482333 -0.02857754 0 0 Z M-5 4.375 C-5.53198858 9.64709037 -5.53198858 9.64709037 -3.8125 14.4375 C-1.95883669 15.59655548 -1.95883669 15.59655548 0.5625 15.1875 C3.14441272 14.52872967 3.14441272 14.52872967 5 12.375 C5.3176246 10.46493694 5.3176246 10.46493694 5.25 8.375 C5.25515625 7.67375 5.2603125 6.9725 5.265625 6.25 C5.15705515 4.1314331 5.15705515 4.1314331 3 2.375 C-1.50480277 1.8645042 -1.50480277 1.8645042 -5 4.375 Z " fill="#E9F3F7" transform="translate(137,136.625)"/>
<path d="M0 0 C0.70125 0.00515625 1.4025 0.0103125 2.125 0.015625 C2.82625 0.01046875 3.5275 0.0053125 4.25 0 C6.125 0.265625 6.125 0.265625 8.125 2.265625 C8.125 3.255625 8.125 4.245625 8.125 5.265625 C7.465 5.265625 6.805 5.265625 6.125 5.265625 C5.795 4.605625 5.465 3.945625 5.125 3.265625 C2.09565509 2.60790072 2.09565509 2.60790072 -0.875 2.265625 C-0.875 3.585625 -0.875 4.905625 -0.875 6.265625 C-0.30910156 6.39839844 0.25679687 6.53117188 0.83984375 6.66796875 C1.57332031 6.84457031 2.30679688 7.02117187 3.0625 7.203125 C4.15884766 7.46416016 4.15884766 7.46416016 5.27734375 7.73046875 C7.125 8.265625 7.125 8.265625 8.125 9.265625 C8.25 12.265625 8.25 12.265625 8.125 15.265625 C6.53605928 16.85456572 4.87698576 16.43560911 2.6875 16.453125 C1.48287109 16.47439453 1.48287109 16.47439453 0.25390625 16.49609375 C-1.875 16.265625 -1.875 16.265625 -3.875 14.265625 C-3.875 13.275625 -3.875 12.285625 -3.875 11.265625 C-3.215 11.265625 -2.555 11.265625 -1.875 11.265625 C-0.885 12.750625 -0.885 12.750625 0.125 14.265625 C2.70880177 14.51593477 2.70880177 14.51593477 5.125 14.265625 C5.125 12.945625 5.125 11.625625 5.125 10.265625 C4.55910156 10.10707031 3.99320313 9.94851562 3.41015625 9.78515625 C1.19591855 9.08080296 -0.82460118 8.36204879 -2.875 7.265625 C-4 4.703125 -4 4.703125 -3.875 2.265625 C-1.875 0.265625 -1.875 0.265625 0 0 Z " fill="#DFEDF4" transform="translate(186.875,136.734375)"/>
<path d="M0 0 C2.4375 1.5 2.4375 1.5 4 4 C4.68375401 7.79172676 4.42949186 10.92627035 3 14.5 C0.2792037 16.54059723 -1.79233673 16.49732919 -5.12890625 16.33203125 C-7 16 -7 16 -8.9375 14.625 C-11.30930074 10.99754005 -11.37338855 8.33130724 -11 4 C-8.11188513 -0.5054592 -5.11821063 -0.73117295 0 0 Z M-7.3125 2.5 C-9.17595383 5.26067234 -9.22711861 5.93919525 -8.9375 9.125 C-8.41156058 13.21549524 -8.41156058 13.21549524 -5 15 C-2.41666667 14.91666667 -2.41666667 14.91666667 0 14 C2.46324069 10.30513897 2.38991688 8.36706908 2 4 C0.89350331 1.97521537 0.89350331 1.97521537 -1 1 C-4.90008991 0.63720593 -4.90008991 0.63720593 -7.3125 2.5 Z " fill="#DFECF4" transform="translate(119,137)"/>
<path d="M0 0 C5.94 0 11.88 0 18 0 C18 0.66 18 1.32 18 2 C15.36 2 12.72 2 10 2 C10 8.93 10 15.86 10 23 C9.34 23 8.68 23 8 23 C8 16.07 8 9.14 8 2 C5.36 2 2.72 2 0 2 C0 1.34 0 0.68 0 0 Z " fill="#DCE9F6" transform="translate(30,130)"/>
<path d="M0 0 C1.32 0 2.64 0 4 0 C5.19625 -0.061875 6.3925 -0.12375 7.625 -0.1875 C8.73875 -0.125625 9.8525 -0.06375 11 0 C13.42130331 3.63195496 13.21022785 5.38349348 13.125 9.6875 C13.10695313 10.86699219 13.08890625 12.04648438 13.0703125 13.26171875 C13.03550781 14.61716797 13.03550781 14.61716797 13 16 C12.34 16 11.68 16 11 16 C10.67 11.71 10.34 7.42 10 3 C8.35 2.67 6.7 2.34 5 2 C2.31907309 4.68092691 2.61329743 6.39167363 2.375 10.125 C2.30023438 11.22070312 2.22546875 12.31640625 2.1484375 13.4453125 C2.09945312 14.28835937 2.05046875 15.13140625 2 16 C1.34 16 0.68 16 0 16 C0 10.72 0 5.44 0 0 Z " fill="#EBF4F8" transform="translate(93,137)"/>
<path d="M0 0 C1.875 0.328125 1.875 0.328125 3.875 1.640625 C4.875 3.328125 4.875 3.328125 4.875 6.328125 C4.215 6.328125 3.555 6.328125 2.875 6.328125 C2.545 5.338125 2.215 4.348125 1.875 3.328125 C-1.095 2.833125 -1.095 2.833125 -4.125 2.328125 C-6.57397847 6.00159271 -6.44037716 7.99168899 -6.125 12.328125 C-4.29584359 14.56657515 -4.29584359 14.56657515 -1.625 14.640625 C-0.8 14.5375 0.025 14.434375 0.875 14.328125 C1.535 13.338125 2.195 12.348125 2.875 11.328125 C3.535 11.328125 4.195 11.328125 4.875 11.328125 C4.5 13.265625 4.5 13.265625 3.875 15.328125 C0.67545919 16.92789541 -2.65255346 16.81810212 -6.125 16.328125 C-8.48678663 14.55678503 -8.98390266 13.31177501 -9.3984375 10.421875 C-9.55401787 7.21452575 -9.32291031 4.82290077 -8.125 1.828125 C-5.40535144 -0.21161142 -3.33533749 -0.17167178 0 0 Z " fill="#EBF4F7" transform="translate(69.125,136.671875)"/>
<path d="M0 0 C2.5 0.875 2.5 0.875 3.8125 3.4375 C4.1528125 4.6440625 4.1528125 4.6440625 4.5 5.875 C1.2 5.875 -2.1 5.875 -5.5 5.875 C-5.125 3.4375 -5.125 3.4375 -4.5 0.875 C-2.5 -0.125 -2.5 -0.125 0 0 Z " fill="#117BD0" transform="translate(175.5,138.125)"/>
<path d="M0 0 C0.33 0 0.66 0 1 0 C1 1.65 1 3.3 1 5 C-2.96 5 -6.92 5 -11 5 C-10.01 6.65 -9.02 8.3 -8 10 C-4.62537285 9.45276317 -2.91765 8.9451 0 7 C-0.875 10.875 -0.875 10.875 -2 12 C-9.19389313 12.46412214 -9.19389313 12.46412214 -12.0625 10.8125 C-13 9 -13 9 -12 4 C-8.04 4 -4.08 4 0 4 C0 2.68 0 1.36 0 0 Z " fill="#D5E6F2" transform="translate(181,141)"/>
<path d="M0 0 C2.31 0 4.62 0 7 0 C7.33 1.65 7.66 3.3 8 5 C4.7 5 1.4 5 -2 5 C-1.34 3.35 -0.68 1.7 0 0 Z " fill="#0977CE" transform="translate(48,139)"/>
<path d="M0 0 C2.0625 1.0625 2.0625 1.0625 3 3 C2.6875 6.6875 2.6875 6.6875 2 10 C1.67 10 1.34 10 1 10 C0.34 7.69 -0.32 5.38 -1 3 C-2.98 3 -4.96 3 -7 3 C-7.66 5.31 -8.32 7.62 -9 10 C-9.33 10 -9.66 10 -10 10 C-11.31690141 3.65492958 -11.31690141 3.65492958 -10.0625 1.0625 C-6.77639225 -0.63034339 -3.61302643 -0.53331575 0 0 Z " fill="#DBEAF2" transform="translate(141,137)"/>
<path d="M0 0 C3.3 0.33 6.6 0.66 10 1 C9 5 9 5 8 6 C5.625 6.375 5.625 6.375 3 6 C0 1.96551724 0 1.96551724 0 0 Z " fill="#127BD0" transform="translate(46,146)"/>
<path d="M0 0 C-0.875 4.875 -0.875 4.875 -2 6 C-3.99958364 6.04080783 -6.00045254 6.04254356 -8 6 C-8.33 5.01 -8.66 4.02 -9 3 C-8.67 2.34 -8.34 1.68 -8 1 C-5.30114269 0.42577504 -2.76207303 0 0 0 Z " fill="#0D76CE" transform="translate(158,152)"/>
<path d="M0 0 C1.91015625 0.23046875 1.91015625 0.23046875 3.91015625 2.23046875 C3.91015625 3.22046875 3.91015625 4.21046875 3.91015625 5.23046875 C3.25015625 5.23046875 2.59015625 5.23046875 1.91015625 5.23046875 C1.58015625 4.57046875 1.25015625 3.91046875 0.91015625 3.23046875 C-2.11918866 2.57274447 -2.11918866 2.57274447 -5.08984375 2.23046875 C-5.41984375 3.88046875 -5.74984375 5.53046875 -6.08984375 7.23046875 C-6.74984375 6.90046875 -7.40984375 6.57046875 -8.08984375 6.23046875 C-6.97909637 0.04201908 -6.40293139 0.12782622 0 0 Z " fill="#C2DBED" transform="translate(191.08984375,136.76953125)"/>
<path d="M0 0 C0.66 0.66 1.32 1.32 2 2 C1.34 2.66 0.68 3.32 0 4 C-0.45384636 10.31707327 -0.45384636 10.31707327 2 16 C-1.875 14.125 -1.875 14.125 -3 13 C-3.203125 10.8203125 -3.203125 10.8203125 -3.25 8.125 C-3.27578125 7.24070313 -3.3015625 6.35640625 -3.328125 5.4453125 C-2.94503183 2.59035628 -2.21462117 1.76004103 0 0 Z " fill="#DDECF4" transform="translate(149,137)"/>
<path d="M0 0 C2.4375 1.5625 2.4375 1.5625 4 4 C4.25 7.75 4.25 7.75 4 11 C3.34 10.67 2.68 10.34 2 10 C1.26924352 7.6859378 0.59861742 5.35171131 0 3 C-2.3015411 2.22197813 -2.3015411 2.22197813 -5 2 C-7.30504044 3.33153266 -7.30504044 3.33153266 -9 5 C-9.33 4.34 -9.66 3.68 -10 3 C-7.29602194 -0.81738079 -4.39903544 -0.54023242 0 0 Z " fill="#E8F2F6" transform="translate(119,137)"/>
<path d="M0 0 C0.66 0 1.32 0 2 0 C2.75 2.25 2.75 2.25 3 5 C1.4375 7.3125 1.4375 7.3125 -1 9 C-4.33159215 9.47594174 -6.12202162 9.64385081 -8.875 7.625 C-10 6 -10 6 -10 4 C-9.34 4 -8.68 4 -8 4 C-7.67 4.66 -7.34 5.32 -7 6 C-5.02 6 -3.04 6 -1 6 C-0.67 4.02 -0.34 2.04 0 0 Z " fill="#DCECF4" transform="translate(157,151)"/>
<path d="M0 0 C0.33 0 0.66 0 1 0 C1 2.97 1 5.94 1 9 C1.66 9 2.32 9 3 9 C3 11.31 3 13.62 3 16 C2.67 16 2.34 16 2 16 C1.67 17.98 1.34 19.96 1 22 C0.67 22 0.34 22 0 22 C0 14.74 0 7.48 0 0 Z " fill="#4E99DC" transform="translate(127,131)"/>
<path d="M0 0 C2.63638422 0.13569625 3.7622206 0.28145727 6 1.75 C7 3.4375 7 3.4375 7 6.4375 C6.34 6.4375 5.68 6.4375 5 6.4375 C4.67 5.4475 4.34 4.4575 4 3.4375 C1.19954954 2.58099347 1.19954954 2.58099347 -2 2.4375 C-4.39795381 4.25037195 -4.39795381 4.25037195 -6 6.4375 C-6.33 5.7775 -6.66 5.1175 -7 4.4375 C-5.24239427 0.92228854 -3.79423083 0.11856971 0 0 Z " fill="#DEECF4" transform="translate(67,136.5625)"/>
<path d="M0 0 C0.8353125 0.7734375 0.8353125 0.7734375 1.6875 1.5625 C1.3575 3.8725 1.0275 6.1825 0.6875 8.5625 C0.3575 8.5625 0.0275 8.5625 -0.3125 8.5625 C-0.9725 6.2525 -1.6325 3.9425 -2.3125 1.5625 C-3.9625 1.2325 -5.6125 0.9025 -7.3125 0.5625 C-7.3125 0.2325 -7.3125 -0.0975 -7.3125 -0.4375 C-2.88173077 -1.79134615 -2.88173077 -1.79134615 0 0 Z " fill="#BBD6EA" transform="translate(142.3125,138.4375)"/>
<path d="M0 0 C0.66 0 1.32 0 2 0 C1.125 3.875 1.125 3.875 0 5 C-2.67058851 5.14115161 -5.32432238 5.04247107 -8 5 C-8.33 4.34 -8.66 3.68 -9 3 C-7.88625 3.061875 -6.7725 3.12375 -5.625 3.1875 C-4.42875 3.125625 -3.2325 3.06375 -2 3 C-1.34 2.01 -0.68 1.02 0 0 Z " fill="#E5F0F5" transform="translate(56,148)"/>
<path d="M0 0 C1.65 0 3.3 0 5 0 C4.67 1.32 4.34 2.64 4 4 C2.68 4.33 1.36 4.66 0 5 C-0.33 4.01 -0.66 3.02 -1 2 C-0.67 1.34 -0.34 0.68 0 0 Z " fill="#2B88D5" transform="translate(150,153)"/>
</svg>
